<?xml version="1.0" encoding="UTF-8"?>
<!DOCTYPE svg PUBLIC "-//W3C//DTD SVG 1.1//EN" "http://www.w3.org/Graphics/SVG/1.1/DTD/svg11.dtd">
<svg xmlns="http://www.w3.org/2000/svg" version="1.1" width="235px" height="200px" style="shape-rendering:geometricPrecision; text-rendering:geometricPrecision; image-rendering:optimizeQuality; fill-rule:evenodd; clip-rule:evenodd" xmlns:xlink="http://www.w3.org/1999/xlink">
<g><path style="opacity:1" fill="#fdfefe" d="M -0.5,-0.5 C 34.1667,-0.5 68.8333,-0.5 103.5,-0.5C 93.7937,5.35358 83.7937,10.6869 73.5,15.5C 72.5,15.8333 71.8333,16.5 71.5,17.5C 70.5028,37.9933 70.1695,58.6599 70.5,79.5C 67.9407,79.1984 65.6074,79.5318 63.5,80.5C 45.5191,82.1071 27.5191,83.6071 9.5,85C 6.32481,84.9467 3.65814,85.78 1.5,87.5C 0.833333,87.5 0.166667,87.5 -0.5,87.5C -0.5,58.1667 -0.5,28.8333 -0.5,-0.5 Z"/></g>
<g><path style="opacity:1" fill="#fa0404" d="M 103.5,-0.5 C 128.5,-0.5 153.5,-0.5 178.5,-0.5C 178.317,1.98778 177.317,3.98778 175.5,5.5C 169.888,8.45756 164.554,11.7909 159.5,15.5C 130.736,16.8278 102.069,16.8278 73.5,15.5C 83.7937,10.6869 93.7937,5.35358 103.5,-0.5 Z"/></g>
<g><path style="opacity:1" fill="#fefefd" d="M 183.5,-0.5 C 200.5,-0.5 217.5,-0.5 234.5,-0.5C 234.5,28.1667 234.5,56.8333 234.5,85.5C 215.855,84.2197 197.188,82.8864 178.5,81.5C 179.29,80.5987 180.29,79.9321 181.5,79.5C 183.491,53.1876 184.158,26.5209 183.5,-0.5 Z"/></g>
<g><path style="opacity:1" fill="#9d1ebb" d="M 181.5,78.5 C 181.5,78.8333 181.5,79.1667 181.5,79.5C 180.29,79.9321 179.29,80.5987 178.5,81.5C 172.182,89.1517 165.515,96.485 158.5,103.5C 158.5,74.8333 158.5,46.1667 158.5,17.5C 159.338,17.1583 159.672,16.4916 159.5,15.5C 164.554,11.7909 169.888,8.45756 175.5,5.5C 177.394,4.95244 179.06,3.95244 180.5,2.5C 181.5,27.8246 181.833,53.1579 181.5,78.5 Z"/></g>
<g><path style="opacity:1" fill="#8f3592" d="M 178.5,-0.5 C 179.833,-0.5 181.167,-0.5 182.5,-0.5C 182.831,26.0053 182.498,52.3386 181.5,78.5C 181.833,53.1579 181.5,27.8246 180.5,2.5C 179.06,3.95244 177.394,4.95244 175.5,5.5C 177.317,3.98778 178.317,1.98778 178.5,-0.5 Z"/></g>
<g><path style="opacity:1" fill="#fed8fe" d="M 182.5,-0.5 C 182.833,-0.5 183.167,-0.5 183.5,-0.5C 184.158,26.5209 183.491,53.1876 181.5,79.5C 181.5,79.1667 181.5,78.8333 181.5,78.5C 182.498,52.3386 182.831,26.0053 182.5,-0.5 Z"/></g>
<g><path style="opacity:1" fill="#b62a05" d="M 73.5,15.5 C 102.069,16.8278 130.736,16.8278 159.5,15.5C 159.672,16.4916 159.338,17.1583 158.5,17.5C 129.5,17.5 100.5,17.5 71.5,17.5C 71.8333,16.5 72.5,15.8333 73.5,15.5 Z"/></g>
<g><path style="opacity:1" fill="#5ab365" d="M 71.5,17.5 C 100.5,17.5 129.5,17.5 158.5,17.5C 158.5,46.1667 158.5,74.8333 158.5,103.5C 158.167,103.5 157.833,103.5 157.5,103.5C 157.5,75.1667 157.5,46.8333 157.5,18.5C 128.833,18.5 100.167,18.5 71.5,18.5C 71.5,38.8333 71.5,59.1667 71.5,79.5C 71.1667,79.5 70.8333,79.5 70.5,79.5C 70.1695,58.6599 70.5028,37.9933 71.5,17.5 Z"/></g>
<g><path style="opacity:1" fill="#10e632" d="M 157.5,103.5 C 149.903,105.467 141.903,106.134 133.5,105.5C 128.833,105.5 124.167,105.5 119.5,105.5C 117.833,105.5 116.167,105.5 114.5,105.5C 108.167,105.5 101.833,105.5 95.5,105.5C 87.6841,104.508 79.6841,104.174 71.5,104.5C 71.5,96.1667 71.5,87.8333 71.5,79.5C 71.5,59.1667 71.5,38.8333 71.5,18.5C 100.167,18.5 128.833,18.5 157.5,18.5C 157.5,46.8333 157.5,75.1667 157.5,103.5 Z"/></g>
<g><path style="opacity:1" fill="#ec1d01" d="M 99.5,90.5 C 96.0725,93.2312 92.0725,94.2312 87.5,93.5C 87.5,92.5 87.5,91.5 87.5,90.5C 94.7899,70.9532 102.457,51.6198 110.5,32.5C 115.201,30.7811 119.367,31.4478 123,34.5C 127.221,48.3356 132.221,62.0023 138,75.5C 140.163,82.1581 141.996,88.8248 143.5,95.5C 140.102,95.8204 136.768,95.487 133.5,94.5C 130.564,88.0856 128.564,81.419 127.5,74.5C 119.5,74.5 111.5,74.5 103.5,74.5C 102.374,79.88 101.04,85.2133 99.5,90.5 Z"/></g>
<g><path style="opacity:1" fill="#30de32" d="M 114.5,44.5 C 116.411,44.5743 117.578,45.5743 118,47.5C 119.327,52.949 120.827,58.2823 122.5,63.5C 117.786,63.8266 113.12,63.4933 108.5,62.5C 110.873,56.6533 112.873,50.6533 114.5,44.5 Z"/></g>
<g><path style="opacity:1" fill="#0c55f8" d="M 63.5,80.5 C 65.5,80.5 67.5,80.5 69.5,80.5C 69.1743,88.6841 69.5076,96.6841 70.5,104.5C 73.2869,105.477 76.2869,105.81 79.5,105.5C 79.5,106.167 79.5,106.833 79.5,107.5C 74.8781,107.156 70.5448,107.823 66.5,109.5C 56.2123,110.735 45.879,111.735 35.5,112.5C 35.5,111.833 35.1667,111.5 34.5,111.5C 31.7465,110.286 29.0799,108.786 26.5,107C 18.5312,99.8445 10.1979,93.3445 1.5,87.5C 3.65814,85.78 6.32481,84.9467 9.5,85C 27.5191,83.6071 45.5191,82.1071 63.5,80.5 Z"/></g>
<g><path style="opacity:1" fill="#0b64c5" d="M 63.5,80.5 C 65.6074,79.5318 67.9407,79.1984 70.5,79.5C 70.5,87.8333 70.5,96.1667 70.5,104.5C 69.5076,96.6841 69.1743,88.6841 69.5,80.5C 67.5,80.5 65.5,80.5 63.5,80.5 Z"/></g>
<g><path style="opacity:1" fill="#a6500e" d="M 87.5,90.5 C 87.5,91.5 87.5,92.5 87.5,93.5C 92.0725,94.2312 96.0725,93.2312 99.5,90.5C 99.2969,92.0443 98.6302,93.3777 97.5,94.5C 93.8927,95.4892 90.226,95.8226 86.5,95.5C 86.2155,93.5853 86.5489,91.9187 87.5,90.5 Z"/></g>
<g><path style="opacity:1" fill="#fa0604" d="M 234.5,87.5 C 234.5,112.833 234.5,138.167 234.5,163.5C 222.446,174.887 210.779,186.554 199.5,198.5C 199.825,169.76 199.491,141.093 198.5,112.5C 209.315,104.92 219.981,97.0868 230.5,89C 231.745,88.2086 233.078,87.7086 234.5,87.5 Z"/></g>
<g><path style="opacity:1" fill="#fad215" d="M 178.5,81.5 C 197.188,82.8864 215.855,84.2197 234.5,85.5C 234.5,86.1667 234.5,86.8333 234.5,87.5C 233.078,87.7086 231.745,88.2086 230.5,89C 219.981,97.0868 209.315,104.92 198.5,112.5C 194.158,112.261 189.824,111.927 185.5,111.5C 181.958,111.813 178.625,111.479 175.5,110.5C 170.354,109.449 165.021,108.782 159.5,108.5C 150.71,107.763 142.044,106.763 133.5,105.5C 141.903,106.134 149.903,105.467 157.5,103.5C 157.833,103.5 158.167,103.5 158.5,103.5C 165.515,96.485 172.182,89.1517 178.5,81.5 Z"/></g>
<g><path style="opacity:1" fill="#13ad87" d="M 70.5,79.5 C 70.8333,79.5 71.1667,79.5 71.5,79.5C 71.5,87.8333 71.5,96.1667 71.5,104.5C 79.6841,104.174 87.6841,104.508 95.5,105.5C 90.1667,105.5 84.8333,105.5 79.5,105.5C 76.2869,105.81 73.2869,105.477 70.5,104.5C 70.5,96.1667 70.5,87.8333 70.5,79.5 Z"/></g>
<g><path style="opacity:1" fill="#595daa" d="M 79.5,105.5 C 84.8333,105.5 90.1667,105.5 95.5,105.5C 95.5,105.833 95.5,106.167 95.5,106.5C 90.1951,107.194 84.8617,107.528 79.5,107.5C 79.5,106.833 79.5,106.167 79.5,105.5 Z"/></g>
<g><path style="opacity:1" fill="#997077" d="M 79.5,107.5 C 75.4552,109.177 71.1219,109.844 66.5,109.5C 70.5448,107.823 74.8781,107.156 79.5,107.5 Z"/></g>
<g><path style="opacity:1" fill="#597093" d="M 159.5,108.5 C 165.021,108.782 170.354,109.449 175.5,110.5C 171.121,110.708 166.787,110.375 162.5,109.5C 161.353,109.818 160.519,110.484 160,111.5C 159.517,110.552 159.351,109.552 159.5,108.5 Z"/></g>
<g><path style="opacity:1" fill="#f97f0d" d="M 95.5,106.5 C 101.5,106.5 107.5,106.5 113.5,106.5C 113.833,133.175 113.5,159.842 112.5,186.5C 110.664,187.028 108.997,187.694 107.5,188.5C 84.3335,191.933 61.3335,195.6 38.5,199.5C 37.5,199.5 36.5,199.5 35.5,199.5C 35.5,198.833 35.5,198.167 35.5,197.5C 35.5,169.167 35.5,140.833 35.5,112.5C 45.879,111.735 56.2123,110.735 66.5,109.5C 71.1219,109.844 75.4552,109.177 79.5,107.5C 84.8617,107.528 90.1951,107.194 95.5,106.5 Z"/></g>
<g><path style="opacity:1" fill="#07e733" d="M -0.5,87.5 C 0.166667,87.5 0.833333,87.5 1.5,87.5C 10.1979,93.3445 18.5312,99.8445 26.5,107C 29.0799,108.786 31.7465,110.286 34.5,111.5C 35.1584,140.186 34.4917,168.52 32.5,196.5C 21.1937,185.86 10.1937,174.86 -0.5,163.5C -0.5,138.167 -0.5,112.833 -0.5,87.5 Z"/></g>
<g><path style="opacity:1" fill="#e18d2f" d="M 95.5,106.5 C 95.5,106.167 95.5,105.833 95.5,105.5C 101.833,105.5 108.167,105.5 114.5,105.5C 114.667,132.835 114.5,160.169 114,187.5C 111.959,188.423 109.792,188.756 107.5,188.5C 108.997,187.694 110.664,187.028 112.5,186.5C 113.5,159.842 113.833,133.175 113.5,106.5C 107.5,106.5 101.5,106.5 95.5,106.5 Z"/></g>
<g><path style="opacity:1" fill="#0a54f8" d="M 119.5,105.5 C 124.167,105.5 128.833,105.5 133.5,105.5C 142.044,106.763 150.71,107.763 159.5,108.5C 159.351,109.552 159.517,110.552 160,111.5C 160.519,110.484 161.353,109.818 162.5,109.5C 166.787,110.375 171.121,110.708 175.5,110.5C 178.625,111.479 181.958,111.813 185.5,111.5C 185.423,112.75 184.756,113.583 183.5,114C 184,114.167 184.5,114.333 185,114.5C 189.163,113.291 193.329,113.291 197.5,114.5C 198.158,142.853 197.492,170.853 195.5,198.5C 170.35,195.808 145.35,192.142 120.5,187.5C 119.5,160.175 119.167,132.841 119.5,105.5 Z"/></g>
<g><path style="opacity:1" fill="#645a93" d="M 95.5,130.5 C 96.1174,130.611 96.6174,130.944 97,131.5C 97.1667,133.5 97.3333,135.5 97.5,137.5C 97.4609,139.952 96.7943,141.952 95.5,143.5C 96.6501,139.141 96.6501,134.808 95.5,130.5 Z"/></g>
<g><path style="opacity:1" fill="#5166a7" d="M 147.5,139.5 C 146.94,141.801 146.44,144.134 146,146.5C 145.292,147.381 144.458,148.047 143.5,148.5C 143.512,144.834 144.846,141.834 147.5,139.5 Z"/></g>
<g><path style="opacity:1" fill="#1f55ee" d="M 95.5,130.5 C 96.6501,134.808 96.6501,139.141 95.5,143.5C 93.552,145.789 91.552,148.122 89.5,150.5C 94.8209,153.81 98.1542,158.477 99.5,164.5C 98.2793,168.411 96.6126,172.078 94.5,175.5C 91.5276,177.968 88.1943,179.802 84.5,181C 78.0778,181.925 71.7444,183.092 65.5,184.5C 61.8333,184.5 58.1667,184.5 54.5,184.5C 54.3334,164.497 54.5,144.497 55,124.5C 56.6225,123.901 58.1225,123.234 59.5,122.5C 67.6563,121.343 75.9896,121.177 84.5,122C 89.4581,123.444 93.1248,126.277 95.5,130.5 Z"/></g>
<g><path style="opacity:1" fill="#f68015" d="M 63.5,131.5 C 70.5079,131.334 77.5079,131.5 84.5,132C 88.7246,136.287 88.0579,139.787 82.5,142.5C 76.325,144.602 69.9917,145.935 63.5,146.5C 63.5,141.5 63.5,136.5 63.5,131.5 Z"/></g>
<g><path style="opacity:1" fill="#1558ed" d="M 177.5,170.5 C 169.35,174.211 161.017,174.378 152.5,171C 144.764,165.458 141.764,157.958 143.5,148.5C 144.458,148.047 145.292,147.381 146,146.5C 146.44,144.134 146.94,141.801 147.5,139.5C 149.668,136.5 152.334,134 155.5,132C 161.167,131.333 166.833,131.333 172.5,132C 175.562,133.205 178.562,134.372 181.5,135.5C 181.82,132.102 181.487,128.768 180.5,125.5C 178.855,124.304 177.189,123.304 175.5,122.5C 177.677,122.414 179.677,121.747 181.5,120.5C 184.804,120.678 186.471,122.344 186.5,125.5C 187.675,125.281 188.675,125.614 189.5,126.5C 185.731,134.815 184.231,134.481 185,125.5C 181.624,129.273 181.791,132.939 185.5,136.5C 183.328,136.676 180.995,136.843 178.5,137C 182.5,138.333 182.5,139.667 178.5,141C 179.949,142.117 181.616,142.784 183.5,143C 181.5,143.667 179.5,143.667 177.5,143C 176.289,141.887 176.289,140.72 177.5,139.5C 174.826,138.218 172.326,138.551 170,140.5C 167.966,139.278 165.8,138.278 163.5,137.5C 165.921,135.875 168.587,134.542 171.5,133.5C 167.753,132.399 164.086,132.732 160.5,134.5C 159.754,135.736 159.421,137.07 159.5,138.5C 161.346,138.222 162.68,138.889 163.5,140.5C 161.865,141.681 160.198,141.681 158.5,140.5C 156.884,141.115 155.551,142.115 154.5,143.5C 153.152,141.539 151.819,141.372 150.5,143C 151.516,143.519 152.182,144.353 152.5,145.5C 150.82,148.571 150.153,151.904 150.5,155.5C 149.167,155.5 147.833,155.5 146.5,155.5C 146.5,156.833 146.5,158.167 146.5,159.5C 148.167,159.5 149.833,159.5 151.5,159.5C 151.579,160.93 151.246,162.264 150.5,163.5C 153.127,166.756 156.127,169.589 159.5,172C 163.162,172.407 165.495,170.907 166.5,167.5C 164.179,167.229 162.179,167.896 160.5,169.5C 159.585,168.672 158.919,167.672 158.5,166.5C 160.167,166.167 161.833,165.833 163.5,165.5C 166.566,166.046 169.566,166.712 172.5,167.5C 172.5,168.5 172.5,169.5 172.5,170.5C 174.167,170.5 175.833,170.5 177.5,170.5 Z"/></g>
<g><path style="opacity:1" fill="#4a6c83" d="M 133.5,143.5 C 132.806,148.805 132.472,154.138 132.5,159.5C 131.838,157.696 131.505,155.696 131.5,153.5C 131.398,149.883 132.065,146.55 133.5,143.5 Z"/></g>
<g><path style="opacity:1" fill="#826f8b" d="M 59.5,122.5 C 58.1225,123.234 56.6225,123.901 55,124.5C 54.5,144.497 54.3334,164.497 54.5,184.5C 58.1667,184.5 61.8333,184.5 65.5,184.5C 61.7016,185.483 57.7016,185.817 53.5,185.5C 53.3334,164.831 53.5,144.164 54,123.5C 55.6995,122.594 57.5328,122.261 59.5,122.5 Z"/></g>
<g><path style="opacity:1" fill="#643fae" d="M 185.5,111.5 C 189.824,111.927 194.158,112.261 198.5,112.5C 199.491,141.093 199.825,169.76 199.5,198.5C 199.5,198.833 199.5,199.167 199.5,199.5C 198.167,199.5 196.833,199.5 195.5,199.5C 195.5,199.167 195.5,198.833 195.5,198.5C 197.492,170.853 198.158,142.853 197.5,114.5C 193.329,113.291 189.163,113.291 185,114.5C 184.5,114.333 184,114.167 183.5,114C 184.756,113.583 185.423,112.75 185.5,111.5 Z"/></g>
<g><path style="opacity:1" fill="#f67f13" d="M 68.5,158.5 C 74.6415,158.1 80.6415,158.767 86.5,160.5C 89.0212,162.26 89.8545,164.593 89,167.5C 81.4511,172.962 72.9511,175.629 63.5,175.5C 63.5,170.167 63.5,164.833 63.5,159.5C 65.4147,159.784 67.0813,159.451 68.5,158.5 Z"/></g>
<g><path style="opacity:1" fill="#fafdf9" d="M -0.5,163.5 C 10.1937,174.86 21.1937,185.86 32.5,196.5C 33.1054,198.481 34.1054,198.815 35.5,197.5C 35.5,198.167 35.5,198.833 35.5,199.5C 23.5,199.5 11.5,199.5 -0.5,199.5C -0.5,187.5 -0.5,175.5 -0.5,163.5 Z"/></g>
<g><path style="opacity:1" fill="#fcfbfa" d="M 234.5,163.5 C 234.5,175.5 234.5,187.5 234.5,199.5C 222.833,199.5 211.167,199.5 199.5,199.5C 199.5,199.167 199.5,198.833 199.5,198.5C 210.779,186.554 222.446,174.887 234.5,163.5 Z"/></g>
<g><path style="opacity:1" fill="#6fbb1b" d="M 34.5,111.5 C 35.1667,111.5 35.5,111.833 35.5,112.5C 35.5,140.833 35.5,169.167 35.5,197.5C 34.1054,198.815 33.1054,198.481 32.5,196.5C 34.4917,168.52 35.1584,140.186 34.5,111.5 Z"/></g>
<g><path style="opacity:1" fill="#f2d125" d="M 175.5,122.5 C 177.189,123.304 178.855,124.304 180.5,125.5C 181.487,128.768 181.82,132.102 181.5,135.5C 178.562,134.372 175.562,133.205 172.5,132C 166.833,131.333 161.167,131.333 155.5,132C 152.334,134 149.668,136.5 147.5,139.5C 144.846,141.834 143.512,144.834 143.5,148.5C 141.764,157.958 144.764,165.458 152.5,171C 161.017,174.378 169.35,174.211 177.5,170.5C 178.5,170.5 179.5,170.5 180.5,170.5C 180.665,173.85 180.498,177.183 180,180.5C 178.378,181.099 176.878,181.766 175.5,182.5C 157.433,186.871 143.599,181.205 134,165.5C 133.809,163.292 133.309,161.292 132.5,159.5C 132.472,154.138 132.806,148.805 133.5,143.5C 137.59,128.437 147.59,120.77 163.5,120.5C 167.534,121.04 171.534,121.707 175.5,122.5 Z"/></g>
<g><path style="opacity:1" fill="#4661b3" d="M 177.5,170.5 C 178.568,169.566 179.901,169.232 181.5,169.5C 181.5,173.833 181.5,178.167 181.5,182.5C 179.5,182.5 177.5,182.5 175.5,182.5C 176.878,181.766 178.378,181.099 180,180.5C 180.498,177.183 180.665,173.85 180.5,170.5C 179.5,170.5 178.5,170.5 177.5,170.5 Z"/></g>
<g><path style="opacity:1" fill="#f9faf6" d="M 114.5,105.5 C 116.167,105.5 117.833,105.5 119.5,105.5C 119.167,132.841 119.5,160.175 120.5,187.5C 145.35,192.142 170.35,195.808 195.5,198.5C 195.5,198.833 195.5,199.167 195.5,199.5C 143.167,199.5 90.8333,199.5 38.5,199.5C 61.3335,195.6 84.3335,191.933 107.5,188.5C 109.792,188.756 111.959,188.423 114,187.5C 114.5,160.169 114.667,132.835 114.5,105.5 Z"/></g>
</svg>
