<?xml version="1.0" ?><svg viewBox="0 0 64 64" xmlns="http://www.w3.org/2000/svg"><defs><style>.cls-1{fill:#748a95;}.cls-2{fill:#617880;}.cls-3{fill:#f5d96d;}.cls-4{fill:#f5c160;}.cls-5{fill:#f0f4f7;}.cls-6{fill:#e0e9ee;}.cls-7{fill:#f6e782;}.cls-8{fill:#252b48;}</style></defs><g data-name="Chair" id="Chair-2"><path class="cls-1" d="M43.84,46.11l2.23,8.31a2.13,2.13,0,0,0,4.12-1.1l-2-7.44L46,44.08Z" id="path117452-1"/><path class="cls-1" d="M15.8,45.88l-2,7.44a2.13,2.13,0,1,0,4.12,1.1l2.23-8.31-2.18-2Z" id="path117440-5"/><path class="cls-2" d="M46,44.08l-2.18,2,1,3.55h4.41l-1-3.78Z" id="path382604"/><path class="cls-2" d="M18,44.08l-2.18,1.8-1,3.78h4.42l.94-3.55Z" id="rect382514"/><path class="cls-3" d="M46.34,23.77l1.4-10.11A4.72,4.72,0,0,0,42.83,8H21.16a4.71,4.71,0,0,0-4.9,5.66l1.4,10.11.24,18.29,28-.73Z" id="rect117817-5"/><path class="cls-4" d="M45.89,41.33l.44-17.56,1.41-10.11A4.72,4.72,0,0,0,42.83,8H39.45a4.7,4.7,0,0,1,4.9,5.66S43.23,20.38,43,23.77c-.47,5.84-.44,17.56-.44,17.56Z" id="path375991"/><path class="cls-5" d="M43.59,35.65a3.48,3.48,0,0,0-3.48-3.49H23.89a3.48,3.48,0,0,0-3.48,3.49L17.73,38.9l5,4.38,23.47-.82L47.9,38.4Z" id="path81114-4-3"/><path class="cls-6" d="M40.05,32.16v7H18l4.75,4.15,23.48-.82L47.9,38.4l-4.31-2.75a3.48,3.48,0,0,0-3.48-3.49Z" id="path369378"/><path class="cls-7" d="M43.59,25.34v13.8H20.41V25.34a1.65,1.65,0,0,0-1.66-1.65A7.73,7.73,0,0,0,11,31.43V39.6a6.5,6.5,0,0,0,6.51,6.51H46.47A6.5,6.5,0,0,0,53,39.6V31.43a7.73,7.73,0,0,0-7.73-7.74A1.65,1.65,0,0,0,43.59,25.34Z" id="rect78566-3-8"/><path class="cls-3" d="M45.25,23.69a1.61,1.61,0,0,0-1,.32,7.73,7.73,0,0,1,5.56,7.42v8.18a6.5,6.5,0,0,1-6.51,6.5h3.14A6.5,6.5,0,0,0,53,39.61V31.43A7.73,7.73,0,0,0,45.25,23.69Z" id="path371505"/><path class="cls-8" d="M23.63,15.5a1.25,1.25,0,0,0,1.25-1.25h0A1.25,1.25,0,0,0,23.63,13h0a1.25,1.25,0,1,0,0,2.5Z"/><path class="cls-8" d="M10,31.43V39.6a7.53,7.53,0,0,0,4.58,6.92l-1.76,6.54a3.14,3.14,0,0,0,6.06,1.62l2-7.57H43.08l2,7.57a3.14,3.14,0,0,0,6.06-1.62L49.4,46.52A7.53,7.53,0,0,0,54,39.6V31.43A8.75,8.75,0,0,0,47.45,23l1.28-9.18A5.81,5.81,0,0,0,47.47,9a6.11,6.11,0,0,0-4.64-2H21.17a6.11,6.11,0,0,0-4.64,2,5.81,5.81,0,0,0-1.26,4.81L16.55,23A8.75,8.75,0,0,0,10,31.43ZM17,54.16a1.13,1.13,0,0,1-2.19-.58L16.53,47a8.12,8.12,0,0,0,1,.07h1.32Zm32.27-.58a1.13,1.13,0,0,1-2.19.58l-1.89-7h1.32a8.12,8.12,0,0,0,1-.07Zm-32-40.06A3.89,3.89,0,0,1,18,10.3,4.13,4.13,0,0,1,21.17,9H42.83A4.13,4.13,0,0,1,46,10.3a3.89,3.89,0,0,1,.79,3.22L45.47,22.7h-.22a2.66,2.66,0,0,0-2.66,2.65v6.57a4.48,4.48,0,0,0-2.48-.75H23.89a4.48,4.48,0,0,0-2.48.75V25.34a2.66,2.66,0,0,0-2.66-2.65h-.23Zm4.16,22.13a2.48,2.48,0,0,1,2.48-2.49H40.11a2.48,2.48,0,0,1,2.48,2.49v2.49H21.41ZM17.8,24.77h0a6,6,0,0,1,.95-.08.66.66,0,0,1,.66.65v12.8h-.58a1,1,0,0,0,0,2H45.17a1,1,0,0,0,0-2h-.58V25.34a.66.66,0,0,1,.66-.65,6,6,0,0,1,1,.08h0A6.74,6.74,0,0,1,52,31.43V39.6a5.51,5.51,0,0,1-5.51,5.51H17.53A5.51,5.51,0,0,1,12,39.6V31.43A6.74,6.74,0,0,1,17.8,24.77Z"/><path class="cls-8" d="M32,15.5a1.25,1.25,0,0,0,1.25-1.25h0A1.25,1.25,0,0,0,32,13h0a1.25,1.25,0,0,0,0,2.5Z"/><path class="cls-8" d="M40.37,15.5a1.25,1.25,0,0,0,1.25-1.25h0A1.25,1.25,0,0,0,40.37,13h0a1.25,1.25,0,0,0,0,2.5Z"/><path class="cls-8" d="M23.63,21.52a1.25,1.25,0,0,0,1.25-1.25h0A1.25,1.25,0,0,0,23.63,19h0a1.25,1.25,0,0,0,0,2.5Z"/><path class="cls-8" d="M32,21.52a1.25,1.25,0,0,0,1.25-1.25h0A1.25,1.25,0,0,0,32,19h0a1.25,1.25,0,0,0,0,2.5Z"/><path class="cls-8" d="M40.37,21.52a1.25,1.25,0,0,0,1.25-1.25h0A1.25,1.25,0,0,0,40.37,19h0a1.25,1.25,0,0,0,0,2.5Z"/><path class="cls-8" d="M27.82,27.55h0a1.25,1.25,0,0,0,1.25-1.25h0a1.25,1.25,0,1,0-1.25,1.25Z"/><circle class="cls-8" cx="36.18" cy="26.3" r="1.25"/></g></svg>