<?xml version="1.0" encoding="UTF-8" standalone="no"?>
<svg
   xmlns:dc="http://purl.org/dc/elements/1.1/"
   xmlns:cc="http://creativecommons.org/ns#"
   xmlns:rdf="http://www.w3.org/1999/02/22-rdf-syntax-ns#"
   xmlns:svg="http://www.w3.org/2000/svg"
   xmlns="http://www.w3.org/2000/svg"
   xmlns:sodipodi="http://sodipodi.sourceforge.net/DTD/sodipodi-0.dtd"
   xmlns:inkscape="http://www.inkscape.org/namespaces/inkscape"
   inkscape:export-ydpi="576"
   inkscape:export-xdpi="576"
   inkscape:export-filename="C:\Users\RainBoyz\Desktop\Oktober 2\8 - Hotel Slipper.png"
   width="64pt"
   height="64pt"
   viewBox="0 0 22.577778 22.577778"
   version="1.1"
   id="svg831"
   inkscape:version="1.0 (4035a4fb49, 2020-05-01)"
   sodipodi:docname="EXPORT 64px.svg">
  <defs
     id="defs825">
    <pattern
       id="EMFhbasepattern"
       patternUnits="userSpaceOnUse"
       width="6"
       height="6"
       x="0"
       y="0" />
    <pattern
       id="EMFhbasepattern-9"
       patternUnits="userSpaceOnUse"
       width="6"
       height="6"
       x="0"
       y="0" />
    <pattern
       id="EMFhbasepattern-0"
       patternUnits="userSpaceOnUse"
       width="6"
       height="6"
       x="0"
       y="0" />
    <pattern
       id="EMFhbasepattern-7"
       patternUnits="userSpaceOnUse"
       width="6"
       height="6"
       x="0"
       y="0" />
    <pattern
       id="EMFhbasepattern-2"
       patternUnits="userSpaceOnUse"
       width="6"
       height="6"
       x="0"
       y="0" />
    <pattern
       id="EMFhbasepattern-98"
       patternUnits="userSpaceOnUse"
       width="6"
       height="6"
       x="0"
       y="0" />
    <pattern
       id="EMFhbasepattern-6"
       patternUnits="userSpaceOnUse"
       width="6"
       height="6"
       x="0"
       y="0" />
    <pattern
       id="EMFhbasepattern-01"
       patternUnits="userSpaceOnUse"
       width="6"
       height="6"
       x="0"
       y="0" />
    <pattern
       id="EMFhbasepattern-07"
       patternUnits="userSpaceOnUse"
       width="6"
       height="6"
       x="0"
       y="0" />
    <pattern
       id="EMFhbasepattern-8"
       patternUnits="userSpaceOnUse"
       width="6"
       height="6"
       x="0"
       y="0" />
    <pattern
       id="EMFhbasepattern-4"
       patternUnits="userSpaceOnUse"
       width="6"
       height="6"
       x="0"
       y="0" />
    <pattern
       id="EMFhbasepattern-40"
       patternUnits="userSpaceOnUse"
       width="6"
       height="6"
       x="0"
       y="0" />
    <pattern
       id="EMFhbasepattern-08"
       patternUnits="userSpaceOnUse"
       width="6"
       height="6"
       x="0"
       y="0" />
    <pattern
       id="EMFhbasepattern-04"
       patternUnits="userSpaceOnUse"
       width="6"
       height="6"
       x="0"
       y="0" />
    <pattern
       id="EMFhbasepattern-014"
       patternUnits="userSpaceOnUse"
       width="6"
       height="6"
       x="0"
       y="0" />
    <pattern
       id="EMFhbasepattern-27"
       patternUnits="userSpaceOnUse"
       width="6"
       height="6"
       x="0"
       y="0" />
    <pattern
       id="EMFhbasepattern-09"
       patternUnits="userSpaceOnUse"
       width="6"
       height="6"
       x="0"
       y="0" />
    <pattern
       id="EMFhbasepattern-5"
       patternUnits="userSpaceOnUse"
       width="6"
       height="6"
       x="0"
       y="0" />
    <pattern
       id="EMFhbasepattern-018"
       patternUnits="userSpaceOnUse"
       width="6"
       height="6"
       x="0"
       y="0" />
  </defs>
  <sodipodi:namedview
     id="base"
     pagecolor="#ffffff"
     bordercolor="#666666"
     borderopacity="1.0"
     inkscape:pageopacity="0.0"
     inkscape:pageshadow="2"
     inkscape:zoom="2.175182"
     inkscape:cx="40.444629"
     inkscape:cy="42.666667"
     inkscape:document-units="pt"
     inkscape:current-layer="layer1"
     showgrid="false"
     units="pt"
     inkscape:window-width="1366"
     inkscape:window-height="715"
     inkscape:window-x="-8"
     inkscape:window-y="-8"
     inkscape:window-maximized="1"
     inkscape:pagecheckerboard="true"
     inkscape:showpageshadow="false"
     inkscape:object-paths="true"
     inkscape:snap-intersection-paths="true"
     inkscape:snap-smooth-nodes="true"
     inkscape:snap-midpoints="true"
     showguides="true"
     inkscape:snap-bbox="true"
     inkscape:bbox-nodes="true"
     inkscape:snap-nodes="false"
     inkscape:snap-global="true"
     inkscape:document-rotation="0">
    <inkscape:grid
       type="xygrid"
       id="grid1378" />
    <sodipodi:guide
       position="0.97013831,21.607643"
       orientation="78.000048,0"
       id="guide1380"
       inkscape:locked="false" />
    <sodipodi:guide
       position="0.97013831,0.97013129"
       orientation="0,78.000005"
       id="guide1382"
       inkscape:locked="false" />
    <sodipodi:guide
       position="21.607639,0.97013129"
       orientation="-78.000048,0"
       id="guide1384"
       inkscape:locked="false" />
    <sodipodi:guide
       position="21.607639,21.607643"
       orientation="0,-78.000005"
       id="guide1386"
       inkscape:locked="false" />
  </sodipodi:namedview>
  <metadata
     id="metadata828">
    <rdf:RDF>
      <cc:Work
         rdf:about="">
        <dc:format>image/svg+xml</dc:format>
        <dc:type
           rdf:resource="http://purl.org/dc/dcmitype/StillImage" />
        <dc:title></dc:title>
      </cc:Work>
    </rdf:RDF>
  </metadata>
  <g
     inkscape:label="Icon"
     inkscape:groupmode="layer"
     id="layer1"
     transform="translate(0,-274.42223)">
    <g
       transform="matrix(1.3145245,0,0,1.3145245,0.15905541,-93.574031)"
       style="display:inline"
       id="g471">
      <path
         id="path466"
         d="m 1.1855469,288.43359 c -0.1461736,-5.6e-4 -0.26511237,0.11751 -0.26562502,0.26368 l 0.22010432,4.4375 c 0.081792,1.649 1.1249577,2.84935 2.7759894,2.84935 h 0.6074219 c 1.6510318,0 2.524745,-1.20321 2.6517561,-2.84935 l 0.3423845,-4.4375 C 7.517068,288.55186 7.3993176,288.4341 7.2539062,288.43359 Z"
         style="color:#000000;font-style:normal;font-variant:normal;font-weight:normal;font-stretch:normal;font-size:medium;line-height:normal;font-family:sans-serif;font-variant-ligatures:normal;font-variant-position:normal;font-variant-caps:normal;font-variant-numeric:normal;font-variant-alternates:normal;font-variant-east-asian:normal;font-feature-settings:normal;font-variation-settings:normal;text-indent:0;text-align:start;text-decoration:none;text-decoration-line:none;text-decoration-style:solid;text-decoration-color:#000000;letter-spacing:normal;word-spacing:normal;text-transform:none;writing-mode:lr-tb;direction:ltr;text-orientation:mixed;dominant-baseline:auto;baseline-shift:baseline;text-anchor:start;white-space:normal;shape-padding:0;shape-margin:0;inline-size:0;clip-rule:nonzero;display:inline;overflow:visible;visibility:visible;isolation:auto;mix-blend-mode:normal;color-interpolation:sRGB;color-interpolation-filters:linearRGB;solid-color:#000000;solid-opacity:1;vector-effect:none;fill:#f5f6e8;fill-opacity:1;fill-rule:nonzero;stroke:none;stroke-width:0.529167;stroke-linecap:round;stroke-linejoin:round;stroke-miterlimit:4;stroke-dasharray:none;stroke-dashoffset:0;stroke-opacity:1;color-rendering:auto;image-rendering:auto;shape-rendering:auto;text-rendering:auto;enable-background:accumulate;stop-color:#000000"
         sodipodi:nodetypes="ccssssccc" />
      <path
         sodipodi:nodetypes="cccccscccc"
         d="m 1.1854574,288.43359 c -0.1461199,-5.6e-4 -0.26503284,0.11743 -0.2656171,0.26355 v 1.85312 h 4.8694705 c 0.6621292,0 1.1988914,0.53676 1.1988932,1.19889 v 3.0825 c 0.3332026,-0.48298 0.3824305,-1.06747 0.3824305,-1.69705 v -4.43746 c -5.809e-4,-0.14531 -0.1182365,-0.26297 -0.2635498,-0.26355 z"
         style="color:#000000;font-style:normal;font-variant:normal;font-weight:normal;font-stretch:normal;font-size:medium;line-height:normal;font-family:sans-serif;font-variant-ligatures:normal;font-variant-position:normal;font-variant-caps:normal;font-variant-numeric:normal;font-variant-alternates:normal;font-variant-east-asian:normal;font-feature-settings:normal;font-variation-settings:normal;text-indent:0;text-align:start;text-decoration:none;text-decoration-line:none;text-decoration-style:solid;text-decoration-color:#000000;letter-spacing:normal;word-spacing:normal;text-transform:none;writing-mode:lr-tb;direction:ltr;text-orientation:mixed;dominant-baseline:auto;baseline-shift:baseline;text-anchor:start;white-space:normal;shape-padding:0;shape-margin:0;inline-size:0;clip-rule:nonzero;display:inline;overflow:visible;visibility:visible;isolation:auto;mix-blend-mode:normal;color-interpolation:sRGB;color-interpolation-filters:linearRGB;solid-color:#000000;solid-opacity:1;vector-effect:none;fill:#e5e5d8;fill-opacity:1;fill-rule:nonzero;stroke:none;stroke-width:0.529167;stroke-linecap:round;stroke-linejoin:round;stroke-miterlimit:4;stroke-dasharray:none;stroke-dashoffset:0;stroke-opacity:1;color-rendering:auto;image-rendering:auto;shape-rendering:auto;text-rendering:auto;enable-background:accumulate;stop-color:#000000"
         id="path1361" />
      <path
         id="path392"
         d="m 4.21875,280.9375 c -1.9861514,0 -3.45137478,1.61545 -3.46321827,3.60156 l -0.0344061,5.76978 c 0.1286021,0.36906 0.30053557,0.30789 0.42535777,-0.006 -2.1e-6,-0.09 0.044075,-0.19225 0.1777345,-0.3164 0.1336593,-0.12415 0.3502049,-0.25303 0.6308593,-0.36328 0.5613089,-0.22052 1.3701734,-0.36719 2.2636718,-0.36719 0.8934984,0 1.7023637,0.14667 2.2636719,0.36719 0.2806541,0.11026 0.4972,0.23913 0.6308593,0.36328 0.1336594,0.12415 0.1777366,0.22636 0.1777344,0.3164 0,0.35286 0.3909528,0.35286 0.3909528,0 v -5.76367 c 0,-1.98615 -1.477067,-3.60156 -3.4632183,-3.60156 z"
         style="color:#000000;font-style:normal;font-variant:normal;font-weight:normal;font-stretch:normal;font-size:medium;line-height:normal;font-family:sans-serif;font-variant-ligatures:normal;font-variant-position:normal;font-variant-caps:normal;font-variant-numeric:normal;font-variant-alternates:normal;font-variant-east-asian:normal;font-feature-settings:normal;font-variation-settings:normal;text-indent:0;text-align:start;text-decoration:none;text-decoration-line:none;text-decoration-style:solid;text-decoration-color:#000000;letter-spacing:normal;word-spacing:normal;text-transform:none;writing-mode:lr-tb;direction:ltr;text-orientation:mixed;dominant-baseline:auto;baseline-shift:baseline;text-anchor:start;white-space:normal;shape-padding:0;shape-margin:0;inline-size:0;clip-rule:nonzero;display:inline;overflow:visible;visibility:visible;isolation:auto;mix-blend-mode:normal;color-interpolation:sRGB;color-interpolation-filters:linearRGB;solid-color:#000000;solid-opacity:1;vector-effect:none;fill:#7ecdca;fill-opacity:1;fill-rule:nonzero;stroke:none;stroke-width:0.529166;stroke-linecap:round;stroke-linejoin:round;stroke-miterlimit:4;stroke-dasharray:none;stroke-dashoffset:0;stroke-opacity:1;color-rendering:auto;image-rendering:auto;shape-rendering:auto;text-rendering:auto;enable-background:accumulate;stop-color:#000000"
         sodipodi:nodetypes="csccscssscsscc" />
      <path
         id="path450"
         d="m 2.3984375,288.93945 a 0.26460996,0.26460996 0 0 0 -0.2636719,0.26367 v 3.93165 c 0,1.05233 0.8555723,1.90234 1.9023438,1.90234 h 0.3632812 c 1.0478145,0 1.9042969,-0.85452 1.9042969,-1.90234 v -3.93165 a 0.26460996,0.26460996 0 0 0 -0.265625,-0.26367 z"
         style="color:#000000;font-style:normal;font-variant:normal;font-weight:normal;font-stretch:normal;font-size:medium;line-height:normal;font-family:sans-serif;font-variant-ligatures:normal;font-variant-position:normal;font-variant-caps:normal;font-variant-numeric:normal;font-variant-alternates:normal;font-variant-east-asian:normal;font-feature-settings:normal;font-variation-settings:normal;text-indent:0;text-align:start;text-decoration:none;text-decoration-line:none;text-decoration-style:solid;text-decoration-color:#000000;letter-spacing:normal;word-spacing:normal;text-transform:none;writing-mode:lr-tb;direction:ltr;text-orientation:mixed;dominant-baseline:auto;baseline-shift:baseline;text-anchor:start;white-space:normal;shape-padding:0;shape-margin:0;inline-size:0;clip-rule:nonzero;display:inline;overflow:visible;visibility:visible;isolation:auto;mix-blend-mode:normal;color-interpolation:sRGB;color-interpolation-filters:linearRGB;solid-color:#000000;solid-opacity:1;vector-effect:none;fill:#87d1ee;fill-opacity:1;fill-rule:nonzero;stroke:none;stroke-width:0.529167;stroke-linecap:round;stroke-linejoin:round;stroke-miterlimit:4;stroke-dasharray:none;stroke-dashoffset:0;stroke-opacity:1;color-rendering:auto;image-rendering:auto;shape-rendering:auto;text-rendering:auto;enable-background:accumulate;stop-color:#000000" />
      <path
         id="path1254"
         style="color:#000000;font-style:normal;font-variant:normal;font-weight:normal;font-stretch:normal;font-size:medium;line-height:normal;font-family:sans-serif;font-variant-ligatures:normal;font-variant-position:normal;font-variant-caps:normal;font-variant-numeric:normal;font-variant-alternates:normal;font-variant-east-asian:normal;font-feature-settings:normal;font-variation-settings:normal;text-indent:0;text-align:start;text-decoration:none;text-decoration-line:none;text-decoration-style:solid;text-decoration-color:#000000;letter-spacing:normal;word-spacing:normal;text-transform:none;writing-mode:lr-tb;direction:ltr;text-orientation:mixed;dominant-baseline:auto;baseline-shift:baseline;text-anchor:start;white-space:normal;shape-padding:0;shape-margin:0;inline-size:0;clip-rule:nonzero;display:inline;overflow:visible;visibility:visible;isolation:auto;mix-blend-mode:normal;color-interpolation:sRGB;color-interpolation-filters:linearRGB;solid-color:#000000;solid-opacity:1;vector-effect:none;fill:#79bbd4;fill-opacity:1;fill-rule:nonzero;stroke:none;stroke-width:0.529167;stroke-linecap:round;stroke-linejoin:round;stroke-miterlimit:4;stroke-dasharray:none;stroke-dashoffset:0;stroke-opacity:1;color-rendering:auto;image-rendering:auto;shape-rendering:auto;text-rendering:auto;enable-background:accumulate;stop-color:#000000"
         d="M 6.0389081,288.9395 H 2.3983033 c -0.1453132,5.9e-4 -0.2629688,0.11824 -0.2635498,0.26355 v 1.34721 h 3.0910318 c 0.3035207,0 0.5495729,0.24605 0.5495729,0.54957 v 2.03477 c 0,1.01978 -0.8117332,1.85454 -1.8210776,1.89859 0.1453404,0.008 0.2957137,0.004 0.4459676,0.004 1.0478146,0 1.9042767,-0.8549 1.9042767,-1.90272 v -2.46755 -1.464 c -0.00958,-0.17138 -0.1550032,-0.20256 -0.2656168,-0.26355 z"
         sodipodi:nodetypes="cccccsccccccc" />
      <path
         d="m 7.2910281,285.06532 c 8e-7,0.001 0,0.002 0,0.003 v 0.5917 c 0.1868649,0.0949 0.3687101,0.20742 0.5291667,0.34985 v -0.66766 c -0.1738053,-0.11202 -0.353413,-0.20166 -0.5291667,-0.27699 z m 0,1.26142 v 0.60979 c 0.1866215,0.10709 0.3685207,0.23147 0.5291667,0.3824 v -0.6873 c -0.1736363,-0.1208 -0.3531449,-0.21997 -0.5291667,-0.30489 z"
         style="color:#000000;font-style:normal;font-variant:normal;font-weight:normal;font-stretch:normal;font-size:medium;line-height:normal;font-family:sans-serif;font-variant-ligatures:normal;font-variant-position:normal;font-variant-caps:normal;font-variant-numeric:normal;font-variant-alternates:normal;font-variant-east-asian:normal;font-feature-settings:normal;font-variation-settings:normal;text-indent:0;text-align:start;text-decoration:none;text-decoration-line:none;text-decoration-style:solid;text-decoration-color:#000000;letter-spacing:normal;word-spacing:normal;text-transform:none;writing-mode:lr-tb;direction:ltr;text-orientation:mixed;dominant-baseline:auto;baseline-shift:baseline;text-anchor:start;white-space:normal;shape-padding:0;shape-margin:0;inline-size:0;clip-rule:nonzero;display:inline;overflow:visible;visibility:visible;isolation:auto;mix-blend-mode:normal;color-interpolation:sRGB;color-interpolation-filters:linearRGB;solid-color:#000000;solid-opacity:1;vector-effect:none;fill:#28a8bf;fill-opacity:1;fill-rule:nonzero;stroke:none;stroke-width:0.529167;stroke-linecap:round;stroke-linejoin:round;stroke-miterlimit:4;stroke-dasharray:none;stroke-dashoffset:0;stroke-opacity:1;color-rendering:auto;image-rendering:auto;shape-rendering:auto;text-rendering:auto;enable-background:accumulate;stop-color:#000000"
         id="path1324" />
      <path
         id="path388"
         style="color:#000000;font-style:normal;font-variant:normal;font-weight:normal;font-stretch:normal;font-size:medium;line-height:normal;font-family:sans-serif;font-variant-ligatures:normal;font-variant-position:normal;font-variant-caps:normal;font-variant-numeric:normal;font-variant-alternates:normal;font-variant-east-asian:normal;font-feature-settings:normal;font-variation-settings:normal;text-indent:0;text-align:start;text-decoration:none;text-decoration-line:none;text-decoration-style:solid;text-decoration-color:#000000;letter-spacing:normal;word-spacing:normal;text-transform:none;writing-mode:lr-tb;direction:ltr;text-orientation:mixed;dominant-baseline:auto;baseline-shift:baseline;text-anchor:start;white-space:normal;shape-padding:0;shape-margin:0;inline-size:0;clip-rule:nonzero;display:inline;overflow:visible;visibility:visible;isolation:auto;mix-blend-mode:normal;color-interpolation:sRGB;color-interpolation-filters:linearRGB;solid-color:#000000;solid-opacity:1;vector-effect:none;fill:#76bfbd;fill-opacity:1;fill-rule:nonzero;stroke:none;stroke-width:0.529167;stroke-linecap:round;stroke-linejoin:round;stroke-miterlimit:4;stroke-dasharray:none;stroke-dashoffset:0;stroke-opacity:1;color-rendering:auto;image-rendering:auto;shape-rendering:auto;text-rendering:auto;enable-background:accumulate;stop-color:#000000"
         d="m 0.75536065,284.53926 v 0.24701 c 0.63298855,-1.03661 1.63320365,-1.7322 2.93433635,-1.7322 v 5.2e-4 c 1.9861515,0 3.6013309,1.61518 3.6013309,3.60133 v 3.64681 c 0.00766,0.34503 0.3658715,0.34503 0.3735294,0 l -0.034586,-5.76347 c -0.011919,-1.98611 -1.4249561,-3.49758 -3.4111075,-3.49784 -1.9861513,-2.5e-4 -3.46350315,1.51169 -3.46350315,3.49784 z"
         sodipodi:nodetypes="scccsccscs" />
      <path
         id="path432"
         d="m 4.21875,286.90625 c -0.9496735,0 -1.8104608,0.14833 -2.4570312,0.40234 -0.3232853,0.12701 -0.5927811,0.28114 -0.79687505,0.47071 -0.2040939,0.18957 -0.17473238,0.4311 -0.17472596,0.70312 v 1.82031 c 0,0.35286 0.35636661,0.35286 0.35636661,0 -2.2e-6,-0.09 0.044075,-0.19225 0.1777344,-0.3164 0.1336594,-0.12415 0.3502049,-0.25303 0.6308593,-0.36328 0.5613089,-0.22052 1.3701734,-0.36719 2.2636719,-0.36719 0.8934984,0 1.7023631,0.14667 2.2636719,0.36719 0.2806544,0.11025 0.4972,0.23913 0.6308593,0.36328 0.1336594,0.12415 0.1777366,0.22637 0.1777344,0.3164 0,0.35286 0.2726019,0.19629 0.2981935,-0.15564 l 0.1210512,-1.66467 c 6.5e-6,-0.27202 -0.031557,-0.51355 -0.2356509,-0.70312 -0.2040939,-0.18957 -0.475543,-0.3437 -0.7988282,-0.47071 -0.6465703,-0.25401 -1.5073579,-0.40234 -2.4570312,-0.40234 z"
         style="color:#000000;font-style:normal;font-variant:normal;font-weight:normal;font-stretch:normal;font-size:medium;line-height:normal;font-family:sans-serif;font-variant-ligatures:normal;font-variant-position:normal;font-variant-caps:normal;font-variant-numeric:normal;font-variant-alternates:normal;font-variant-east-asian:normal;font-feature-settings:normal;font-variation-settings:normal;text-indent:0;text-align:start;text-decoration:none;text-decoration-line:none;text-decoration-style:solid;text-decoration-color:#000000;letter-spacing:normal;word-spacing:normal;text-transform:none;writing-mode:lr-tb;direction:ltr;text-orientation:mixed;dominant-baseline:auto;baseline-shift:baseline;text-anchor:start;white-space:normal;shape-padding:0;shape-margin:0;inline-size:0;clip-rule:nonzero;display:inline;overflow:visible;visibility:visible;isolation:auto;mix-blend-mode:normal;color-interpolation:sRGB;color-interpolation-filters:linearRGB;solid-color:#000000;solid-opacity:1;vector-effect:none;fill:#2bb3cd;fill-opacity:1;fill-rule:nonzero;stroke:none;stroke-width:0.529166;stroke-linecap:round;stroke-linejoin:round;stroke-miterlimit:4;stroke-dasharray:none;stroke-dashoffset:0;stroke-opacity:1;color-rendering:auto;image-rendering:auto;shape-rendering:auto;text-rendering:auto;enable-background:accumulate;stop-color:#000000"
         sodipodi:nodetypes="scscscscscscscscs" />
      <path
         id="path1246"
         style="color:#000000;font-style:normal;font-variant:normal;font-weight:normal;font-stretch:normal;font-size:medium;line-height:normal;font-family:sans-serif;font-variant-ligatures:normal;font-variant-position:normal;font-variant-caps:normal;font-variant-numeric:normal;font-variant-alternates:normal;font-variant-east-asian:normal;font-feature-settings:normal;font-variation-settings:normal;text-indent:0;text-align:start;text-decoration:none;text-decoration-line:none;text-decoration-style:solid;text-decoration-color:#000000;letter-spacing:normal;word-spacing:normal;text-transform:none;writing-mode:lr-tb;direction:ltr;text-orientation:mixed;dominant-baseline:auto;baseline-shift:baseline;text-anchor:start;white-space:normal;shape-padding:0;shape-margin:0;inline-size:0;clip-rule:nonzero;display:inline;overflow:visible;visibility:visible;isolation:auto;mix-blend-mode:normal;color-interpolation:sRGB;color-interpolation-filters:linearRGB;solid-color:#000000;solid-opacity:1;vector-effect:none;fill:#26a1b8;fill-opacity:1;fill-rule:nonzero;stroke:none;stroke-width:0.529167;stroke-linecap:round;stroke-linejoin:round;stroke-miterlimit:4;stroke-dasharray:none;stroke-dashoffset:0;stroke-opacity:1;color-rendering:auto;image-rendering:auto;shape-rendering:auto;text-rendering:auto;enable-background:accumulate;stop-color:#000000"
         d="m 4.2188637,286.90604 c -0.9496735,0 -1.8106438,0.14855 -2.4572143,0.40256 -0.3232854,0.12701 -0.5927566,0.2812 -0.79685068,0.47077 -0.2040937,0.18957 -0.3477887,0.43078 -0.3477823,0.7028 v 0.20929 c 0.1739797,-0.12461 0.3798451,-0.23196 0.61546628,-0.32453 0.6465705,-0.25401 1.5075409,-0.40256 2.4572143,-0.40256 0.9496735,0 1.8101277,0.14855 2.4566979,0.40256 0.3232851,0.12701 0.5948236,0.2812 0.7989176,0.47077 0.2040938,0.18957 0.3457218,0.4313 0.3457154,0.70332 l -0.082539,0.55995 c 0.00765,0.34504 0.2814178,0.1508 0.2890723,-0.19424 l 0.1881253,-1.42456 c 6.4e-6,-0.27202 -0.00711,-0.51323 -0.2112072,-0.7028 -0.2040941,-0.18957 -0.4756325,-0.34376 -0.7989176,-0.47077 -0.6465703,-0.25401 -1.5070244,-0.40256 -2.456698,-0.40256 z"
         sodipodi:nodetypes="scscccscsccccscs" />
      <path
         style="color:#000000;font-style:normal;font-variant:normal;font-weight:normal;font-stretch:normal;font-size:medium;line-height:normal;font-family:sans-serif;font-variant-ligatures:normal;font-variant-position:normal;font-variant-caps:normal;font-variant-numeric:normal;font-variant-alternates:normal;font-variant-east-asian:normal;font-feature-settings:normal;font-variation-settings:normal;text-indent:0;text-align:start;text-decoration:none;text-decoration-line:none;text-decoration-style:solid;text-decoration-color:#000000;letter-spacing:normal;word-spacing:normal;text-transform:none;writing-mode:lr-tb;direction:ltr;text-orientation:mixed;dominant-baseline:auto;baseline-shift:baseline;text-anchor:start;white-space:normal;shape-padding:0;shape-margin:0;inline-size:0;clip-rule:nonzero;display:inline;overflow:visible;visibility:visible;isolation:auto;mix-blend-mode:normal;color-interpolation:sRGB;color-interpolation-filters:linearRGB;solid-color:#000000;solid-opacity:1;vector-effect:none;fill:#f5f6e8;fill-opacity:1;fill-rule:nonzero;stroke:none;stroke-width:0.529167;stroke-linecap:round;stroke-linejoin:round;stroke-miterlimit:4;stroke-dasharray:none;stroke-dashoffset:0;stroke-opacity:1;color-rendering:auto;image-rendering:auto;shape-rendering:auto;text-rendering:auto;enable-background:accumulate;stop-color:#000000"
         d="m 9.6667979,288.43359 c -0.1461736,-5.6e-4 -0.2651124,0.11751 -0.265625,0.26368 l 0.1711922,4.4375 c 0.063647,1.6498 1.1738699,2.80044 2.8249019,2.80044 h 0.607422 c 1.651031,0 2.692244,-1.15144 2.774036,-2.80044 l 0.220104,-4.4375 c -5.1e-4,-0.14541 -0.118261,-0.26317 -0.263672,-0.26368 z"
         id="path1280"
         sodipodi:nodetypes="ccssssccc" />
      <path
         id="path1282"
         style="color:#000000;font-style:normal;font-variant:normal;font-weight:normal;font-stretch:normal;font-size:medium;line-height:normal;font-family:sans-serif;font-variant-ligatures:normal;font-variant-position:normal;font-variant-caps:normal;font-variant-numeric:normal;font-variant-alternates:normal;font-variant-east-asian:normal;font-feature-settings:normal;font-variation-settings:normal;text-indent:0;text-align:start;text-decoration:none;text-decoration-line:none;text-decoration-style:solid;text-decoration-color:#000000;letter-spacing:normal;word-spacing:normal;text-transform:none;writing-mode:lr-tb;direction:ltr;text-orientation:mixed;dominant-baseline:auto;baseline-shift:baseline;text-anchor:start;white-space:normal;shape-padding:0;shape-margin:0;inline-size:0;clip-rule:nonzero;display:inline;overflow:visible;visibility:visible;isolation:auto;mix-blend-mode:normal;color-interpolation:sRGB;color-interpolation-filters:linearRGB;solid-color:#000000;solid-opacity:1;vector-effect:none;fill:#e5e5d8;fill-opacity:1;fill-rule:nonzero;stroke:none;stroke-width:0.529167;stroke-linecap:round;stroke-linejoin:round;stroke-miterlimit:4;stroke-dasharray:none;stroke-dashoffset:0;stroke-opacity:1;color-rendering:auto;image-rendering:auto;shape-rendering:auto;text-rendering:auto;enable-background:accumulate;stop-color:#000000"
         d="m 9.6667084,288.43359 c -0.1461199,-5.6e-4 -0.2650328,0.11743 -0.2656171,0.26355 v 1.85312 h 4.8694707 c 0.662129,0 1.198891,0.53676 1.198893,1.19889 v 3.0825 c 0.333203,-0.48298 0.357975,-1.06747 0.357975,-1.69705 v -4.43746 c -5.81e-4,-0.14531 -0.118237,-0.26297 -0.26355,-0.26355 z"
         sodipodi:nodetypes="cccccscccc" />
      <path
         style="color:#000000;font-style:normal;font-variant:normal;font-weight:normal;font-stretch:normal;font-size:medium;line-height:normal;font-family:sans-serif;font-variant-ligatures:normal;font-variant-position:normal;font-variant-caps:normal;font-variant-numeric:normal;font-variant-alternates:normal;font-variant-east-asian:normal;font-feature-settings:normal;font-variation-settings:normal;text-indent:0;text-align:start;text-decoration:none;text-decoration-line:none;text-decoration-style:solid;text-decoration-color:#000000;letter-spacing:normal;word-spacing:normal;text-transform:none;writing-mode:lr-tb;direction:ltr;text-orientation:mixed;dominant-baseline:auto;baseline-shift:baseline;text-anchor:start;white-space:normal;shape-padding:0;shape-margin:0;inline-size:0;clip-rule:nonzero;display:inline;overflow:visible;visibility:visible;isolation:auto;mix-blend-mode:normal;color-interpolation:sRGB;color-interpolation-filters:linearRGB;solid-color:#000000;solid-opacity:1;vector-effect:none;fill:#7ecdca;fill-opacity:1;fill-rule:nonzero;stroke:none;stroke-width:0.529166;stroke-linecap:round;stroke-linejoin:round;stroke-miterlimit:4;stroke-dasharray:none;stroke-dashoffset:0;stroke-opacity:1;color-rendering:auto;image-rendering:auto;shape-rendering:auto;text-rendering:auto;enable-background:accumulate;stop-color:#000000"
         d="m 9.2586444,284.53906 c 0.022446,1.93387 0.016975,3.87649 0.053901,5.80667 0.2769946,0.29071 0.1630508,0.17251 0.3151935,-0.0428 -2.1e-6,-0.09 0.044075,-0.19225 0.1777345,-0.3164 0.1336593,-0.12415 0.3502056,-0.25303 0.6308596,-0.36328 0.561309,-0.22052 1.370174,-0.36719 2.263672,-0.36719 0.893498,0 1.702364,0.14667 2.263672,0.36719 0.280654,0.11026 0.4972,0.23913 0.630859,0.36328 0.13366,0.12415 0.177737,0.22636 0.177735,0.3164 0,0.35286 0.425539,0.35286 0.425539,0 v -5.76367 c 0,-1.98615 -1.511654,-3.47317 -3.497807,-3.47327 -1.986153,-10e-5 -3.4413586,1.48692 -3.4413586,3.47307 z"
         id="path1284"
         sodipodi:nodetypes="cccscssscsscc" />
      <path
         style="color:#000000;font-style:normal;font-variant:normal;font-weight:normal;font-stretch:normal;font-size:medium;line-height:normal;font-family:sans-serif;font-variant-ligatures:normal;font-variant-position:normal;font-variant-caps:normal;font-variant-numeric:normal;font-variant-alternates:normal;font-variant-east-asian:normal;font-feature-settings:normal;font-variation-settings:normal;text-indent:0;text-align:start;text-decoration:none;text-decoration-line:none;text-decoration-style:solid;text-decoration-color:#000000;letter-spacing:normal;word-spacing:normal;text-transform:none;writing-mode:lr-tb;direction:ltr;text-orientation:mixed;dominant-baseline:auto;baseline-shift:baseline;text-anchor:start;white-space:normal;shape-padding:0;shape-margin:0;inline-size:0;clip-rule:nonzero;display:inline;overflow:visible;visibility:visible;isolation:auto;mix-blend-mode:normal;color-interpolation:sRGB;color-interpolation-filters:linearRGB;solid-color:#000000;solid-opacity:1;vector-effect:none;fill:#87d1ee;fill-opacity:1;fill-rule:nonzero;stroke:none;stroke-width:0.529167;stroke-linecap:round;stroke-linejoin:round;stroke-miterlimit:4;stroke-dasharray:none;stroke-dashoffset:0;stroke-opacity:1;color-rendering:auto;image-rendering:auto;shape-rendering:auto;text-rendering:auto;enable-background:accumulate;stop-color:#000000"
         d="m 10.879689,288.93945 a 0.26460996,0.26460996 0 0 0 -0.263672,0.26367 v 3.93165 c 0,1.05233 0.855572,1.90234 1.902343,1.90234 h 0.363282 c 1.047814,0 1.904297,-0.85452 1.904297,-1.90234 v -3.93165 a 0.26460996,0.26460996 0 0 0 -0.265625,-0.26367 z"
         id="path1288" />
      <path
         sodipodi:nodetypes="cccccsccccccc"
         d="m 14.520159,288.9395 h -3.640605 c -0.145313,5.9e-4 -0.262969,0.11824 -0.26355,0.26355 v 1.34721 h 3.091032 c 0.303521,0 0.549573,0.24605 0.549573,0.54957 v 2.03477 c 0,1.01978 -0.811733,1.85454 -1.821077,1.89859 0.14534,0.008 0.295713,0.004 0.445967,0.004 1.047815,0 1.904277,-0.8549 1.904277,-1.90272 v -2.46755 -1.464 c -0.0096,-0.17138 -0.155003,-0.20256 -0.265617,-0.26355 z"
         style="color:#000000;font-style:normal;font-variant:normal;font-weight:normal;font-stretch:normal;font-size:medium;line-height:normal;font-family:sans-serif;font-variant-ligatures:normal;font-variant-position:normal;font-variant-caps:normal;font-variant-numeric:normal;font-variant-alternates:normal;font-variant-east-asian:normal;font-feature-settings:normal;font-variation-settings:normal;text-indent:0;text-align:start;text-decoration:none;text-decoration-line:none;text-decoration-style:solid;text-decoration-color:#000000;letter-spacing:normal;word-spacing:normal;text-transform:none;writing-mode:lr-tb;direction:ltr;text-orientation:mixed;dominant-baseline:auto;baseline-shift:baseline;text-anchor:start;white-space:normal;shape-padding:0;shape-margin:0;inline-size:0;clip-rule:nonzero;display:inline;overflow:visible;visibility:visible;isolation:auto;mix-blend-mode:normal;color-interpolation:sRGB;color-interpolation-filters:linearRGB;solid-color:#000000;solid-opacity:1;vector-effect:none;fill:#79bbd4;fill-opacity:1;fill-rule:nonzero;stroke:none;stroke-width:0.529167;stroke-linecap:round;stroke-linejoin:round;stroke-miterlimit:4;stroke-dasharray:none;stroke-dashoffset:0;stroke-opacity:1;color-rendering:auto;image-rendering:auto;shape-rendering:auto;text-rendering:auto;enable-background:accumulate;stop-color:#000000"
         id="path1290" />
      <path
         id="path1302"
         style="color:#000000;font-style:normal;font-variant:normal;font-weight:normal;font-stretch:normal;font-size:medium;line-height:normal;font-family:sans-serif;font-variant-ligatures:normal;font-variant-position:normal;font-variant-caps:normal;font-variant-numeric:normal;font-variant-alternates:normal;font-variant-east-asian:normal;font-feature-settings:normal;font-variation-settings:normal;text-indent:0;text-align:start;text-decoration:none;text-decoration-line:none;text-decoration-style:solid;text-decoration-color:#000000;letter-spacing:normal;word-spacing:normal;text-transform:none;writing-mode:lr-tb;direction:ltr;text-orientation:mixed;dominant-baseline:auto;baseline-shift:baseline;text-anchor:start;white-space:normal;shape-padding:0;shape-margin:0;inline-size:0;clip-rule:nonzero;display:inline;overflow:visible;visibility:visible;isolation:auto;mix-blend-mode:normal;color-interpolation:sRGB;color-interpolation-filters:linearRGB;solid-color:#000000;solid-opacity:1;vector-effect:none;fill:#28a8bf;fill-opacity:1;fill-rule:nonzero;stroke:none;stroke-width:0.529167;stroke-linecap:round;stroke-linejoin:round;stroke-miterlimit:4;stroke-dasharray:none;stroke-dashoffset:0;stroke-opacity:1;color-rendering:auto;image-rendering:auto;shape-rendering:auto;text-rendering:auto;enable-background:accumulate;stop-color:#000000"
         d="m 15.772279,285.06532 c 1e-6,0.001 0,0.002 0,0.003 v 0.5917 c 0.186865,0.0949 0.36871,0.20742 0.529167,0.34985 v -0.66766 c -0.173806,-0.11202 -0.353413,-0.20166 -0.529167,-0.27699 z m 0,1.26142 v 0.60979 c 0.186622,0.10709 0.368521,0.23147 0.529167,0.3824 v -0.6873 c -0.173636,-0.1208 -0.353145,-0.21997 -0.529167,-0.30489 z" />
      <path
         d="m 9.1961101,284.53926 v 0.24701 c 0.6329886,-1.03661 1.6737049,-1.7322 2.9748379,-1.7322 v 5.2e-4 c 1.986152,0 3.601331,1.61518 3.601331,3.60133 v 3.64681 c 0.0076,0.34504 0.348588,0.34504 0.356237,0 l -0.01586,-5.76347 c -0.0055,-1.98614 -1.426392,-3.4457 -3.412541,-3.44596 -1.98615,-2.5e-4 -3.5040039,1.45981 -3.5040049,3.44596 z"
         style="color:#000000;font-style:normal;font-variant:normal;font-weight:normal;font-stretch:normal;font-size:medium;line-height:normal;font-family:sans-serif;font-variant-ligatures:normal;font-variant-position:normal;font-variant-caps:normal;font-variant-numeric:normal;font-variant-alternates:normal;font-variant-east-asian:normal;font-feature-settings:normal;font-variation-settings:normal;text-indent:0;text-align:start;text-decoration:none;text-decoration-line:none;text-decoration-style:solid;text-decoration-color:#000000;letter-spacing:normal;word-spacing:normal;text-transform:none;writing-mode:lr-tb;direction:ltr;text-orientation:mixed;dominant-baseline:auto;baseline-shift:baseline;text-anchor:start;white-space:normal;shape-padding:0;shape-margin:0;inline-size:0;clip-rule:nonzero;display:inline;overflow:visible;visibility:visible;isolation:auto;mix-blend-mode:normal;color-interpolation:sRGB;color-interpolation-filters:linearRGB;solid-color:#000000;solid-opacity:1;vector-effect:none;fill:#76bfbd;fill-opacity:1;fill-rule:nonzero;stroke:none;stroke-width:0.529167;stroke-linecap:round;stroke-linejoin:round;stroke-miterlimit:4;stroke-dasharray:none;stroke-dashoffset:0;stroke-opacity:1;color-rendering:auto;image-rendering:auto;shape-rendering:auto;text-rendering:auto;enable-background:accumulate;stop-color:#000000"
         id="path1304"
         sodipodi:nodetypes="scccsccscs" />
      <path
         style="color:#000000;font-style:normal;font-variant:normal;font-weight:normal;font-stretch:normal;font-size:medium;line-height:normal;font-family:sans-serif;font-variant-ligatures:normal;font-variant-position:normal;font-variant-caps:normal;font-variant-numeric:normal;font-variant-alternates:normal;font-variant-east-asian:normal;font-feature-settings:normal;font-variation-settings:normal;text-indent:0;text-align:start;text-decoration:none;text-decoration-line:none;text-decoration-style:solid;text-decoration-color:#000000;letter-spacing:normal;word-spacing:normal;text-transform:none;writing-mode:lr-tb;direction:ltr;text-orientation:mixed;dominant-baseline:auto;baseline-shift:baseline;text-anchor:start;white-space:normal;shape-padding:0;shape-margin:0;inline-size:0;clip-rule:nonzero;display:inline;overflow:visible;visibility:visible;isolation:auto;mix-blend-mode:normal;color-interpolation:sRGB;color-interpolation-filters:linearRGB;solid-color:#000000;solid-opacity:1;vector-effect:none;fill:#2bb3cd;fill-opacity:1;fill-rule:nonzero;stroke:none;stroke-width:0.529166;stroke-linecap:round;stroke-linejoin:round;stroke-miterlimit:4;stroke-dasharray:none;stroke-dashoffset:0;stroke-opacity:1;color-rendering:auto;image-rendering:auto;shape-rendering:auto;text-rendering:auto;enable-background:accumulate;stop-color:#000000"
         d="m 12.700001,287.02667 c -0.949673,0 -1.810461,0.14833 -2.457031,0.40234 -0.3232855,0.12701 -0.3237649,0.28114 -0.5278588,0.47071 -0.2040939,0.18957 -0.2625116,0.31068 -0.2625052,0.5827 l -0.2690164,1.82031 c -0.051588,0.34907 0.4441458,0.35286 0.4441458,0 -2.2e-6,-0.09 0.044075,-0.19225 0.1777344,-0.3164 0.1336594,-0.12415 0.3502052,-0.25303 0.6308592,-0.36328 0.561309,-0.22052 1.370174,-0.36719 2.263672,-0.36719 0.893498,0 1.702363,0.14667 2.263672,0.36719 0.280654,0.11025 0.4972,0.23913 0.630859,0.36328 0.13366,0.12415 0.177737,0.22637 0.177735,0.3164 6.5e-4,0.35221 0.528646,0.35221 0.529296,0 v -1.82031 c 7e-6,-0.27202 -0.141609,-0.51355 -0.345703,-0.70312 -0.204093,-0.18957 -0.475543,-0.3437 -0.798828,-0.47071 -0.64657,-0.25401 -1.507358,-0.28192 -2.457031,-0.28192 z"
         id="path1312"
         sodipodi:nodetypes="scscssscscscccscs" />
      <path
         d="m 12.700115,286.9813 c -0.949674,0 -1.810644,0.14855 -2.457215,0.40256 -0.323285,0.12701 -0.3971079,0.30566 -0.601202,0.49523 -0.2040937,0.18957 -0.3722448,0.33106 -0.3722384,0.60308 v 0.20929 c 0.1739797,-0.12461 0.2086529,-0.23196 0.4442741,-0.32453 0.6465703,-0.25401 1.5075413,-0.40256 2.4572143,-0.40256 0.949674,0 1.810128,0.14855 2.456698,0.40256 0.323285,0.12701 0.594823,0.2812 0.798918,0.47077 0.204093,0.18957 0.345721,0.4313 0.345715,0.70332 v 0.76171 c 0.0076,0.34505 0.521521,0.34505 0.529167,0 v -1.82056 c 6e-6,-0.27202 -0.141622,-0.51323 -0.345716,-0.7028 -0.204094,-0.18957 -0.475632,-0.34376 -0.798917,-0.47077 -0.646571,-0.25401 -1.507025,-0.3273 -2.456698,-0.3273 z"
         style="color:#000000;font-style:normal;font-variant:normal;font-weight:normal;font-stretch:normal;font-size:medium;line-height:normal;font-family:sans-serif;font-variant-ligatures:normal;font-variant-position:normal;font-variant-caps:normal;font-variant-numeric:normal;font-variant-alternates:normal;font-variant-east-asian:normal;font-feature-settings:normal;font-variation-settings:normal;text-indent:0;text-align:start;text-decoration:none;text-decoration-line:none;text-decoration-style:solid;text-decoration-color:#000000;letter-spacing:normal;word-spacing:normal;text-transform:none;writing-mode:lr-tb;direction:ltr;text-orientation:mixed;dominant-baseline:auto;baseline-shift:baseline;text-anchor:start;white-space:normal;shape-padding:0;shape-margin:0;inline-size:0;clip-rule:nonzero;display:inline;overflow:visible;visibility:visible;isolation:auto;mix-blend-mode:normal;color-interpolation:sRGB;color-interpolation-filters:linearRGB;solid-color:#000000;solid-opacity:1;vector-effect:none;fill:#26a1b8;fill-opacity:1;fill-rule:nonzero;stroke:none;stroke-width:0.529167;stroke-linecap:round;stroke-linejoin:round;stroke-miterlimit:4;stroke-dasharray:none;stroke-dashoffset:0;stroke-opacity:1;color-rendering:auto;image-rendering:auto;shape-rendering:auto;text-rendering:auto;enable-background:accumulate;stop-color:#000000"
         id="path1314"
         sodipodi:nodetypes="scscccscsccccscs" />
      <path
         sodipodi:nodetypes="ssccsssscccssscccsssccccsssccccccccccccccccccccccccsscccccccccccccccccccccccccsccccccccccccccccssccccccccccccccccsccccccccccccccccccccsccccscccsccccscccccsccssscsscsssscscsssscccssccccssscccccccscccs"
         d="m 4.2188636,280.93741 c -1.986151,0 -3.60184702,1.6157 -3.60184702,3.60185 v 5.76347 c 0.0176,0.26339 0.175624,0.48508 0.302824,0.65629 v 2.17558 c 0,1.65103 1.34516802,2.9962 2.99620002,2.9962 h 0.607198 c 1.6510317,0 2.9941317,-1.34517 2.9941317,-2.9962 v -2.17351 c 0.176702,-0.2206 0.276227,-0.41946 0.302824,-0.65836 8.2e-4,-1.92465 0,-3.84156 0,-5.76347 0,-1.98615 -1.615179,-3.60185 -3.6013307,-3.60185 z m 8.4961234,0 c -1.986152,0 -3.6039147,1.6157 -3.6039147,3.60185 v 5.76347 c 0.01778,0.26452 0.176855,0.48669 0.30489,0.65836 v 2.17351 c 0,1.65103 1.3431007,2.9962 2.9941327,2.9962 h 0.607715 c 1.651032,0 2.995683,-1.34517 2.995683,-2.9962 v -2.17558 c 0.176129,-0.22007 0.276068,-0.41799 0.302823,-0.65629 6.61e-4,-1.92382 0,-3.84096 0,-5.76347 0,-1.98615 -1.615179,-3.60185 -3.601331,-3.60185 z m -8.4961234,0.52762 c 1.7001677,0 3.0721647,1.37406 3.0721647,3.07423 v 0.62115 c -0.3539,-0.23608 -0.768793,-0.36525 -1.156519,-0.45527 -0.113037,0.007 -0.208823,0.0859 -0.238228,0.19534 -0.03763,0.14191 0.04748,0.28733 0.189652,0.32401 0.465261,0.11963 0.88728,0.29557 1.205095,0.64233 v 0.50643 c -0.359263,-0.23194 -0.76591,-0.3765 -1.156519,-0.45527 -0.113037,0.007 -0.208823,0.0859 -0.238228,0.19534 -0.03763,0.14192 0.04749,0.28734 0.189652,0.32401 0.464858,0.11907 0.886227,0.29798 1.205095,0.64286 v 0.55138 c -0.911564,-0.56796 -2.157206,-0.7201 -3.0721647,-0.72553 -1.119531,0.0441 -2.178353,0.178 -3.072163,0.72657 v -0.45217 c 0.283542,-0.43266 0.851341,-0.61639 1.275374,-0.74311 0.14112,-0.0378 0.224867,-0.18288 0.187069,-0.32401 -0.03131,-0.11545 -0.13618,-0.19553 -0.255799,-0.19533 -0.438707,0.077 -0.855852,0.28822 -1.206644,0.50022 v -0.45165 c 0.315813,-0.4171 0.845151,-0.61366 1.275374,-0.74207 0.14112,-0.0378 0.224867,-0.18288 0.187069,-0.32401 -0.03052,-0.11627 -0.135589,-0.19736 -0.255799,-0.19741 -0.438611,0.0811 -0.855287,0.28995 -1.206644,0.5023 v -0.66611 c 0,-1.70017 1.371996,-3.07423 3.072163,-3.07423 z m 8.4961234,0 c 1.700168,0 3.072164,1.37406 3.072164,3.07423 v 0.6227 c -0.353693,-0.23663 -0.768829,-0.36655 -1.156519,-0.45682 -0.113038,0.007 -0.208823,0.0859 -0.238228,0.19534 -0.03777,0.14128 0.04626,0.28641 0.187585,0.32401 0.465235,0.12056 0.890169,0.29511 1.207162,0.64389 v 0.50642 c -0.353689,-0.23662 -0.768829,-0.36654 -1.156519,-0.45682 -0.113038,0.007 -0.208823,0.0859 -0.238228,0.19534 -0.03777,0.14129 0.04626,0.28641 0.187585,0.32401 0.464822,0.12001 0.889117,0.29752 1.207162,0.64441 v 0.55138 c -0.910942,-0.56947 -2.157236,-0.72165 -3.072164,-0.72708 -1.120637,0.0435 -2.178654,0.17939 -3.0742317,0.72657 v -0.44959 c 0.309018,-0.40606 0.8290327,-0.61076 1.2753747,-0.74569 0.14133,-0.0376 0.22535,-0.18272 0.187586,-0.32401 -0.03116,-0.11489 -0.135206,-0.19484 -0.254249,-0.19534 -0.432096,0.0987 -0.8852157,0.29467 -1.2087117,0.50075 v -0.44959 c 0.310211,-0.40774 0.8317777,-0.61039 1.2753747,-0.74465 0.14133,-0.0376 0.22535,-0.18273 0.187586,-0.32401 -0.03037,-0.11572 -0.134616,-0.19666 -0.254249,-0.19741 -0.432316,0.10329 -0.8843647,0.29619 -1.2087117,0.50281 v -0.66662 c 0,-1.70017 1.3740637,-3.07423 3.0742317,-3.07423 z m -8.8800784,1.31051 c -0.165656,0.0151 -0.304462,0.16897 -0.271818,0.35554 l 0.04237,0.23926 -0.174667,0.17053 c -0.179779,0.17549 -0.08063,0.48088 0.167949,0.51728 l 0.239778,0.0357 0.109554,0.21756 c 0.04917,0.10081 0.149908,0.16701 0.262,0.17001 0.119364,0.004 0.229782,-0.0627 0.282153,-0.17001 l 0.107487,-0.21756 0.2397787,-0.0357 c 0.248578,-0.0364 0.347728,-0.34179 0.167948,-0.51728 l -0.174666,-0.17053 0.04289,-0.23926 c 0.04352,-0.24867 -0.2182737,-0.43885 -0.4413167,-0.3204 l -0.214974,0.11421 -0.214974,-0.11421 c -0.05576,-0.0296 -0.11428,-0.0402 -0.169498,-0.0351 z m 8.4950884,0 c -0.165654,0.0151 -0.304458,0.16897 -0.271818,0.35554 l 0.04237,0.23926 -0.174666,0.17053 c -0.179779,0.17549 -0.08063,0.48088 0.167948,0.51728 l 0.239779,0.0357 0.109554,0.21756 c 0.04917,0.10081 0.149907,0.16701 0.261999,0.17001 0.119365,0.004 0.229784,-0.0627 0.282154,-0.17001 l 0.107487,-0.21756 0.239778,-0.0357 c 0.248582,-0.0364 0.347728,-0.34179 0.167949,-0.51728 l -0.174667,-0.17053 0.04238,-0.23926 c 0.04352,-0.24867 -0.217757,-0.43885 -0.4408,-0.3204 l -0.214974,0.11421 -0.214974,-0.11421 c -0.05576,-0.0296 -0.114281,-0.0402 -0.169499,-0.0351 z m -9.9301434,0.54932 c -0.168492,-6.6e-4 -0.305036,0.1359 -0.304374,0.30438 5.71e-4,0.16763 0.136752,0.30349 0.304374,0.30282 0.166748,-5.8e-4 0.301739,-0.13607 0.302307,-0.30282 6.62e-4,-0.16761 -0.13469,-0.30379 -0.302307,-0.30438 z m 3.6406047,0 c -0.168492,-6.6e-4 -0.305036,0.1359 -0.304374,0.30438 5.82e-4,0.16763 0.136752,0.30349 0.304374,0.30282 0.166748,-5.8e-4 0.301739,-0.13607 0.302307,-0.30282 6.62e-4,-0.16761 -0.134691,-0.30379 -0.302307,-0.30438 z m 4.8544847,0 c -0.168492,-6.6e-4 -0.305036,0.1359 -0.304375,0.30438 5.82e-4,0.16763 0.136753,0.30349 0.304375,0.30282 0.166748,-5.8e-4 0.301739,-0.13607 0.302307,-0.30282 6.61e-4,-0.16761 -0.13469,-0.30379 -0.302307,-0.30438 z m 3.640604,0 c -0.168491,-6.6e-4 -0.305036,0.1359 -0.304374,0.30438 5.82e-4,0.16763 0.136752,0.30349 0.304374,0.30282 0.166749,-5.8e-4 0.30174,-0.13607 0.302308,-0.30282 6.61e-4,-0.16761 -0.134691,-0.30379 -0.302308,-0.30438 z m -10.3166834,4.11086 c 1.0409657,0.0533 2.0705387,0.13491 2.8943977,0.73019 0.133659,0.12414 0.177769,0.22623 0.177767,0.31626 v 0.96997 c -0.911564,-0.56797 -2.157205,-0.72011 -3.0721647,-0.72554 -1.119535,0.0441 -2.178353,0.17799 -3.072163,0.72657 v -0.971 c -3e-6,-0.09 0.04411,-0.19212 0.177766,-0.31626 0.819208,-0.59486 2.025702,-0.72482 2.894397,-0.73019 z m 8.4961234,0 c 1.041669,0.0528 2.069126,0.13642 2.894397,0.73019 0.133659,0.12414 0.177769,0.22623 0.177767,0.31626 v 0.97152 c -0.174549,-0.12461 -0.381383,-0.23196 -0.617017,-0.32453 -0.64657,-0.25402 -1.505474,-0.40256 -2.455147,-0.40256 -0.949674,0 -1.810644,0.14854 -2.457215,0.40256 -0.235392,0.0925 -0.4425787,0.19956 -0.6170167,0.32401 v -0.971 c -2e-6,-0.09 0.04411,-0.19212 0.177767,-0.31626 0.8208197,-0.59412 2.0271917,-0.72482 2.8964647,-0.73019 z m -8.4961234,1.82005 c 0.5703717,0 1.0974807,0.0648 1.5564947,0.16536 v 3.71347 c 0,0.76184 -0.613277,1.37304 -1.3751097,1.37304 h -0.363286 c -0.762876,0 -1.373043,-0.60501 -1.373043,-1.37304 v -3.71399 c 0.458615,-0.10035 0.985318,-0.16484 1.554944,-0.16484 z m 8.4961234,0 c 0.570145,0 1.09611,0.0643 1.554427,0.16484 v 3.71399 c 0,0.76184 -0.611209,1.37304 -1.373043,1.37304 h -0.365352 c -0.762876,0 -1.373043,-0.60501 -1.373043,-1.37304 v -3.71347 c 0.459074,-0.10063 0.986526,-0.16536 1.557011,-0.16536 z m -10.5802334,0.30334 v 3.57549 c 0,1.05233 0.855438,1.90273 1.902209,1.90273 h 0.363286 c 1.0478147,0 1.9042767,-0.85491 1.9042767,-1.90273 v -3.57498 c 0.243486,0.0721 0.478266,0.20629 0.683679,0.32712 -5.82e-4,1.08358 0,2.1632 0,3.24786 0,1.36504 -1.099918,2.46703 -2.4649657,2.46703 h -0.607198 c -1.365049,0 -2.467033,-1.10199 -2.467033,-2.46703 0.0012,-1.0846 0,-2.16618 0,-3.24786 0.238029,-0.1573 0.445032,-0.24186 0.685746,-0.32763 z m 8.4940554,3.5755 c 0,1.05233 0.855438,1.90273 1.90221,1.90273 h 0.365352 c 1.047815,0 1.90221,-0.85491 1.90221,-1.90273 v -3.57499 c 0.243973,0.0725 0.479542,0.2065 0.685746,0.32712 -0.0019,1.0845 0,2.1612 0,3.24786 0,1.36504 -1.101468,2.46703 -2.466516,2.46703 h -0.607715 c -1.365048,0 -2.4649667,-1.10199 -2.4649667,-2.46703 v -3.2489 c 0.2375157,-0.15591 0.4440617,-0.2404 0.6836797,-0.32607 z"
         style="color:#000000;font-style:normal;font-variant:normal;font-weight:normal;font-stretch:normal;font-size:medium;line-height:normal;font-family:sans-serif;font-variant-ligatures:normal;font-variant-position:normal;font-variant-caps:normal;font-variant-numeric:normal;font-variant-alternates:normal;font-variant-east-asian:normal;font-feature-settings:normal;font-variation-settings:normal;text-indent:0;text-align:start;text-decoration:none;text-decoration-line:none;text-decoration-style:solid;text-decoration-color:#000000;letter-spacing:normal;word-spacing:normal;text-transform:none;writing-mode:lr-tb;direction:ltr;text-orientation:mixed;dominant-baseline:auto;baseline-shift:baseline;text-anchor:start;white-space:normal;shape-padding:0;shape-margin:0;inline-size:0;clip-rule:nonzero;display:inline;overflow:visible;visibility:visible;opacity:1;isolation:auto;mix-blend-mode:normal;color-interpolation:sRGB;color-interpolation-filters:linearRGB;solid-color:#000000;solid-opacity:1;vector-effect:none;fill:#000000;fill-opacity:1;fill-rule:nonzero;stroke:none;stroke-width:0.529167;stroke-linecap:round;stroke-linejoin:round;stroke-miterlimit:4;stroke-dasharray:none;stroke-dashoffset:0;stroke-opacity:1;color-rendering:auto;image-rendering:auto;shape-rendering:auto;text-rendering:auto;enable-background:accumulate;stop-color:#000000;stop-opacity:1"
         id="path1496-7" />
    </g>
  </g>
</svg>
